<?xml version="1.0" standalone="no"?>
<!DOCTYPE svg PUBLIC "-//W3C//DTD SVG 20010904//EN"
 "http://www.w3.org/TR/2001/REC-SVG-20010904/DTD/svg10.dtd">
<svg version="1.0" xmlns="http://www.w3.org/2000/svg"
 width="300.000000pt" height="300.000000pt" viewBox="0 0 300.000000 300.000000"
 preserveAspectRatio="xMidYMid meet">
<metadata>
Created by potrace 1.10, written by Peter Selinger 2001-2011
</metadata>
<g transform="translate(0.000000,300.000000) scale(0.100000,-0.100000)"
fill="#51bfc9" stroke="none">
<path d="M82 1498 l3 -1423 2 1418 3 1417 1415 0 1415 0 3 -1417 2 -1418 3
1423 2 1422 -1425 0 -1425 0 2 -1422z"/>
<path d="M132 1497 l-2 -1377 1373 2 1372 3 0 1375 0 1375 -2 -1372 -3 -1373
-1365 0 -1365 0 -3 1372 -2 1373 -3 -1378z"/>
<path d="M1864 2590 c-85 -35 -60 -164 31 -164 31 0 43 6 65 32 l26 32 152 0
c90 0 153 4 157 10 3 6 10 10 16 10 16 0 10 -15 -11 -25 -19 -9 -1128 -1347
-1137 -1372 -3 -6 124 -166 282 -355 l286 -343 384 -5 c212 -3 385 -3 385 0 0
3 -142 180 -315 395 -199 247 -311 393 -305 399 34 34 -21 126 -75 126 -37 0
-85 -50 -85 -88 0 -42 40 -82 83 -82 33 0 45 -13 316 -350 154 -192 281 -352
281 -355 0 -3 -144 -5 -319 -4 l-319 0 -267 321 c-147 177 -268 327 -269 334
0 7 260 329 579 715 319 386 581 705 583 708 1 3 -88 5 -199 3 l-201 -4 -27
31 c-29 33 -64 45 -97 31z m54 -52 c17 -17 15 -43 -4 -59 -31 -26 -70 25 -44
56 15 18 32 19 48 3z m-90 -1267 c8 -4 12 -19 10 -32 -2 -19 -9 -24 -33 -24
-33 0 -45 25 -25 50 14 17 29 19 48 6z"/>
<path d="M354 2525 c-2 -5 -3 -485 -2 -1065 l3 -1055 316 -3 317 -2 -5 382 -5
383 260 335 c213 274 266 336 291 343 32 8 61 49 61 86 0 29 -40 70 -76 77
-66 13 -120 -76 -81 -130 12 -17 -12 -53 -246 -360 l-260 -341 6 -362 6 -363
-270 0 -269 0 0 1020 0 1020 265 0 265 0 0 -286 0 -286 -30 -28 c-39 -37 -41
-89 -5 -125 34 -35 78 -33 116 4 38 38 38 74 -1 112 l-30 30 -2 310 -3 310
-309 2 c-198 1 -310 -2 -312 -8z m1174 -577 c18 -18 14 -46 -9 -58 -26 -14
-49 3 -49 35 0 32 35 46 58 23z m-543 -108 c8 -27 -12 -52 -39 -48 -21 3 -32
28 -22 54 8 22 54 18 61 -6z"/>
<path d="M2504 2505 c-21 -21 -25 -33 -22 -69 l3 -44 -530 -621 c-291 -342
-529 -628 -529 -635 1 -8 107 -144 235 -304 l234 -291 102 -1 c89 0 104 -2
112 -19 17 -31 66 -46 101 -31 85 35 61 160 -31 160 -29 0 -43 -7 -62 -30 -25
-29 -28 -30 -114 -29 l-88 0 -180 225 c-99 124 -197 247 -218 274 l-39 48 499
584 c274 321 509 597 523 614 20 24 33 30 64 30 75 0 113 87 61 139 -33 34
-87 34 -121 0z m86 -30 c26 -31 -13 -82 -44 -56 -21 18 -20 48 2 60 23 14 28
13 42 -4z m-376 -1891 c3 -8 1 -24 -4 -35 -21 -38 -79 -12 -65 31 8 25 60 28
69 4z"/>
<path d="M782 2444 c-17 -7 -36 -22 -42 -34 -11 -20 -18 -21 -128 -19 l-117 1
-3 -926 -2 -926 180 0 180 0 0 353 0 353 72 97 c62 83 76 97 101 97 34 0 87
48 87 80 0 78 -91 119 -145 65 -26 -25 -34 -82 -15 -101 7 -7 -15 -45 -70
-117 l-80 -106 0 -336 0 -335 -130 0 -130 0 0 880 0 880 95 0 c84 0 95 -2 105
-20 6 -11 24 -27 40 -35 79 -41 156 57 100 127 -24 31 -59 39 -98 22z m56 -46
c17 -17 15 -43 -4 -59 -31 -26 -70 25 -44 56 15 18 32 19 48 3z m219 -854 c9
-24 -10 -49 -38 -49 -24 0 -36 23 -25 51 7 19 55 18 63 -2z"/>
</g>
</svg>
